{"asset":{"generator":"Khronos glTF Blender I/O v4.0.44","version":"2.0"},"extensionsUsed":["KHR_materials_specular","KHR_materials_ior"],"scene":0,"scenes":[{"name":"Scene","nodes":[0]}],"nodes":[{"mesh":0,"name":"WallWindow_Corner_Round_Outer"}],"materials":[{"doubleSided":true,"name":"MI_Trim_02","normalTexture":{"index":0},"pbrMetallicRoughness":{"baseColorTexture":{"index":1},"metallicRoughnessTexture":{"index":2}}},{"doubleSided":true,"extensions":{"KHR_materials_specular":{"specularFactor":0},"KHR_materials_ior":{"ior":1.4500000476837158}},"name":"MI_Trim_01","normalTexture":{"index":3},"pbrMetallicRoughness":{"baseColorTexture":{"index":4},"metallicRoughnessTexture":{"index":5}}},{"doubleSided":true,"name":"M_Glass","pbrMetallicRoughness":{"baseColorFactor":[0.800000011920929,0.800000011920929,0.800000011920929,1],"metallicFactor":0,"roughnessFactor":0.5}},{"doubleSided":true,"extensions":{"KHR_materials_specular":{"specularFactor":0},"KHR_materials_ior":{"ior":1.4500000476837158}},"name":"MI_PaddedWall","normalTexture":{"index":6},"pbrMetallicRoughness":{"baseColorTexture":{"index":7},"metallicRoughnessTexture":{"index":8}}}],"meshes":[{"name":"Plane.096","primitives":[{"attributes":{"POSITION":0,"NORMAL":1,"TEXCOORD_0":2},"indices":3,"material":0},{"attributes":{"POSITION":4,"NORMAL":5,"TEXCOORD_0":6},"indices":7,"material":1},{"attributes":{"POSITION":8,"NORMAL":9,"TEXCOORD_0":10},"indices":11,"material":2},{"attributes":{"POSITION":12,"NORMAL":13,"TEXCOORD_0":14},"indices":15,"material":3}]}],"textures":[{"sampler":0,"source":0},{"sampler":0,"source":1},{"sampler":0,"source":2},{"sampler":0,"source":3},{"sampler":0,"source":4},{"sampler":0,"source":5},{"sampler":0,"source":6},{"sampler":0,"source":7},{"sampler":0,"source":8}],"images":[{"mimeType":"image/png","name":"T_Trim_02_Normal","uri":"../Textures/T_Trim_02_Normal.png"},{"mimeType":"image/png","name":"T_Trim_02_BaseColor_Red","uri":"../Textures/T_Trim_02_BaseColor_Red.jpg"},{"mimeType":"image/png","name":"T_Trim_02_ORM","uri":"../Textures/T_Trim_02_ORM.png"},{"mimeType":"image/png","name":"T_Trim_01_Normal","uri":"../Textures/T_Trim_01_Normal.png"},{"mimeType":"image/png","name":"T_Trim_01_BaseColor_Red","uri":"../Textures/T_Trim_01_BaseColor_Red.jpg"},{"mimeType":"image/png","name":"T_Trim_01_ORM","uri":"../Textures/T_Trim_01_ORM.png"},{"mimeType":"image/png","name":"T_PaddedWall_Normal","uri":"../Textures/T_PaddedWall_Normal.png"},{"mimeType":"image/png","name":"T_PaddedWall_BaseColor","uri":"../Textures/T_PaddedWall_BaseColor.jpg"},{"mimeType":"image/png","name":"T_PaddedWall_ORM","uri":"../Textures/T_PaddedWall_ORM.png"}],"accessors":[{"bufferView":0,"componentType":5126,"count":803,"max":[0.0000017327683963230811,3.161181688308716,-0.000019968001652159728],"min":[-4.00827693939209,0.7999997735023499,-4.008275508880615],"type":"VEC3"},{"bufferView":1,"componentType":5126,"count":803,"type":"VEC3"},{"bufferView":2,"componentType":5126,"count":803,"type":"VEC2"},{"bufferView":3,"componentType":5123,"count":2166,"type":"SCALAR"},{"bufferView":4,"componentType":5126,"count":88,"max":[0.0000013276040817800094,1.2689471244812012,-0.000020333773136371747],"min":[-4.000001430511475,-3.258412846207648e-7,-3.999999761581421],"type":"VEC3"},{"bufferView":5,"componentType":5126,"count":88,"type":"VEC3"},{"bufferView":6,"componentType":5126,"count":88,"type":"VEC2"},{"bufferView":7,"componentType":5123,"count":243,"type":"SCALAR"},{"bufferView":8,"componentType":5126,"count":36,"max":[0.0000015791669056852697,3.0001509189605713,-0.00002188722646678798],"min":[-3.931802749633789,0.9999997615814209,-3.9318017959594727],"type":"VEC3"},{"bufferView":9,"componentType":5126,"count":36,"type":"VEC3"},{"bufferView":10,"componentType":5126,"count":36,"type":"VEC2"},{"bufferView":11,"componentType":5123,"count":96,"type":"SCALAR"},{"bufferView":12,"componentType":5126,"count":298,"max":[0.0000015550717762380373,3.000000476837158,-0.000022265343432081863],"min":[-4.00827693939209,1.0007429122924805,-4.008275508880615],"type":"VEC3"},{"bufferView":13,"componentType":5126,"count":298,"type":"VEC3"},{"bufferView":14,"componentType":5126,"count":298,"type":"VEC2"},{"bufferView":15,"componentType":5123,"count":1056,"type":"SCALAR"}],"bufferViews":[{"buffer":0,"byteLength":9636,"byteOffset":0,"target":34962},{"buffer":0,"byteLength":9636,"byteOffset":9636,"target":34962},{"buffer":0,"byteLength":6424,"byteOffset":19272,"target":34962},{"buffer":0,"byteLength":4332,"byteOffset":25696,"target":34963},{"buffer":0,"byteLength":1056,"byteOffset":30028,"target":34962},{"buffer":0,"byteLength":1056,"byteOffset":31084,"target":34962},{"buffer":0,"byteLength":704,"byteOffset":32140,"target":34962},{"buffer":0,"byteLength":486,"byteOffset":32844,"target":34963},{"buffer":0,"byteLength":432,"byteOffset":33332,"target":34962},{"buffer":0,"byteLength":432,"byteOffset":33764,"target":34962},{"buffer":0,"byteLength":288,"byteOffset":34196,"target":34962},{"buffer":0,"byteLength":192,"byteOffset":34484,"target":34963},{"buffer":0,"byteLength":3576,"byteOffset":34676,"target":34962},{"buffer":0,"byteLength":3576,"byteOffset":38252,"target":34962},{"buffer":0,"byteLength":2384,"byteOffset":41828,"target":34962},{"buffer":0,"byteLength":2112,"byteOffset":44212,"target":34963}],"samplers":[{"magFilter":9729,"minFilter":9987}],"buffers":[{"byteLength":46324,"uri":"WallWindow_Corner_Round_Outer.bin"}]}