<svg xmlns="http://www.w3.org/2000/svg" width="256" height="256" viewBox="0 0 256 256" role="img" aria-label="Rift Slit portal">
  <defs>
    <radialGradient id="core-rift-slit" cx="50%" cy="45%" r="58%">
      <stop offset="0%" stop-color="#f472b6" stop-opacity="0.95"/>
      <stop offset="42%" stop-color="#581c87" stop-opacity="0.72"/>
      <stop offset="100%" stop-color="#020617" stop-opacity="0.94"/>
    </radialGradient>
    <linearGradient id="rim-rift-slit" x1="0%" x2="100%" y1="0%" y2="100%">
      <stop offset="0%" stop-color="#f472b6"/>
      <stop offset="48%" stop-color="#f472b6"/>
      <stop offset="100%" stop-color="#581c87"/>
    </linearGradient>
    <filter id="glow-rift-slit" x="-50%" y="-50%" width="200%" height="200%">
      <feGaussianBlur stdDeviation="5" result="blur"/>
      <feMerge>
        <feMergeNode in="blur"/>
        <feMergeNode in="SourceGraphic"/>
      </feMerge>
    </filter>
    <filter id="glow-smoke" x="-50%" y="-50%" width="200%" height="200%">
      <feGaussianBlur stdDeviation="9"/>
    </filter>
  </defs>
  <rect width="256" height="256" rx="22" fill="#020617"/>
  <circle cx="54" cy="46" r="82" fill="#f472b6" opacity="0.12"/>
  <circle cx="205" cy="203" r="92" fill="#f472b6" opacity="0.1"/>
  <g opacity="0.34" filter="url(#glow-smoke)">
    <ellipse cx="74" cy="192" rx="40" ry="12" fill="#f472b6"/>
    <ellipse cx="126" cy="199" rx="58" ry="14" fill="#ffffff" opacity="0.42"/>
    <ellipse cx="180" cy="190" rx="44" ry="12" fill="#f472b6"/>
  </g>
  <path d="M126 29c-20 30 16 48-4 74s15 45-8 71c22-10 13-37 31-60s-15-46 13-85c-22 11-16 30-32 0z" fill="url(#core-rift-slit)" filter="url(#glow-rift-slit)"/>
  <path d="M107 42l39 42-25 29 35 51-53 41" fill="none" stroke="#f472b6" stroke-width="9" stroke-linecap="round" stroke-linejoin="round" filter="url(#glow-rift-slit)"/>
  <path d="M139 46l-22 50 30 34-24 61" fill="none" stroke="#f472b6" stroke-width="3" stroke-linecap="round"/>
  <g opacity="0.86">
    <circle cx="48" cy="54" r="2" fill="#fff"/>
    <circle cx="205" cy="49" r="1.6" fill="#fff"/>
    <circle cx="222" cy="139" r="2.4" fill="#fff"/>
    <circle cx="42" cy="165" r="1.8" fill="#fff"/>
    <circle cx="108" cy="31" r="1.4" fill="#fff"/>
    <circle cx="154" cy="220" r="1.7" fill="#fff"/>
    <circle cx="194" cy="206" r="1.2" fill="#fff"/>
  </g>
  <text x="128" y="232" text-anchor="middle" fill="#dbeafe" font-family="ui-monospace, SFMono-Regular, Menlo, monospace" font-size="13" font-weight="700" letter-spacing="0">Rift Slit</text>
  <text x="128" y="247" text-anchor="middle" fill="#64748b" font-family="ui-monospace, SFMono-Regular, Menlo, monospace" font-size="8" letter-spacing="0">rift-slit</text>
</svg>