<svg xmlns="http://www.w3.org/2000/svg" width="256" height="256" viewBox="0 0 256 256" role="img" aria-label="Solar Arch portal">
  <defs>
    <radialGradient id="core-solar-arch" cx="50%" cy="45%" r="58%">
      <stop offset="0%" stop-color="#f59e0b" stop-opacity="0.95"/>
      <stop offset="42%" stop-color="#7c2d12" stop-opacity="0.72"/>
      <stop offset="100%" stop-color="#fff7ed" stop-opacity="0.94"/>
    </radialGradient>
    <linearGradient id="rim-solar-arch" x1="0%" x2="100%" y1="0%" y2="100%">
      <stop offset="0%" stop-color="#fbbf24"/>
      <stop offset="48%" stop-color="#f59e0b"/>
      <stop offset="100%" stop-color="#7c2d12"/>
    </linearGradient>
    <filter id="glow-solar-arch" x="-50%" y="-50%" width="200%" height="200%">
      <feGaussianBlur stdDeviation="5" result="blur"/>
      <feMerge>
        <feMergeNode in="blur"/>
        <feMergeNode in="SourceGraphic"/>
      </feMerge>
    </filter>
    <filter id="glow-smoke" x="-50%" y="-50%" width="200%" height="200%">
      <feGaussianBlur stdDeviation="9"/>
    </filter>
  </defs>
  <rect width="256" height="256" rx="22" fill="#020617"/>
  <circle cx="54" cy="46" r="82" fill="#fbbf24" opacity="0.12"/>
  <circle cx="205" cy="203" r="92" fill="#f59e0b" opacity="0.1"/>
  <g opacity="0.34" filter="url(#glow-smoke)">
    <ellipse cx="74" cy="192" rx="40" ry="12" fill="#fbbf24"/>
    <ellipse cx="126" cy="199" rx="58" ry="14" fill="#ffffff" opacity="0.42"/>
    <ellipse cx="180" cy="190" rx="44" ry="12" fill="#fbbf24"/>
  </g>
  <g filter="url(#glow-solar-arch)">
    <rect x="124" y="18" width="8" height="58" rx="4" fill="#fbbf24" transform="rotate(-160 128 130)" opacity="0.75"/><rect x="124" y="18" width="8" height="42" rx="4" fill="#f59e0b" transform="rotate(-137 128 130)" opacity="0.75"/><rect x="124" y="18" width="8" height="58" rx="4" fill="#fbbf24" transform="rotate(-114 128 130)" opacity="0.75"/><rect x="124" y="18" width="8" height="42" rx="4" fill="#f59e0b" transform="rotate(-91 128 130)" opacity="0.75"/><rect x="124" y="18" width="8" height="58" rx="4" fill="#fbbf24" transform="rotate(-68 128 130)" opacity="0.75"/><rect x="124" y="18" width="8" height="42" rx="4" fill="#f59e0b" transform="rotate(-45 128 130)" opacity="0.75"/><rect x="124" y="18" width="8" height="58" rx="4" fill="#fbbf24" transform="rotate(-22 128 130)" opacity="0.75"/><rect x="124" y="18" width="8" height="42" rx="4" fill="#f59e0b" transform="rotate(1 128 130)" opacity="0.75"/><rect x="124" y="18" width="8" height="58" rx="4" fill="#fbbf24" transform="rotate(24 128 130)" opacity="0.75"/><rect x="124" y="18" width="8" height="42" rx="4" fill="#f59e0b" transform="rotate(47 128 130)" opacity="0.75"/><rect x="124" y="18" width="8" height="58" rx="4" fill="#fbbf24" transform="rotate(70 128 130)" opacity="0.75"/><rect x="124" y="18" width="8" height="42" rx="4" fill="#f59e0b" transform="rotate(93 128 130)" opacity="0.75"/><rect x="124" y="18" width="8" height="58" rx="4" fill="#fbbf24" transform="rotate(116 128 130)" opacity="0.75"/><rect x="124" y="18" width="8" height="42" rx="4" fill="#f59e0b" transform="rotate(139 128 130)" opacity="0.75"/><rect x="124" y="18" width="8" height="58" rx="4" fill="#fbbf24" transform="rotate(162 128 130)" opacity="0.75"/>
  </g>
  <ellipse cx="128" cy="124" rx="54" ry="84" fill="url(#core-solar-arch)"/>
  <ellipse cx="128" cy="124" rx="70" ry="101" fill="none" stroke="url(#rim-solar-arch)" stroke-width="13" filter="url(#glow-solar-arch)"/>
  <path d="M70 199c32 18 84 18 116 0" fill="none" stroke="#f59e0b" stroke-width="6" opacity="0.5"/>
  <g opacity="0.86">
    <circle cx="48" cy="54" r="2" fill="#fff"/>
    <circle cx="205" cy="49" r="1.6" fill="#fff"/>
    <circle cx="222" cy="139" r="2.4" fill="#fff"/>
    <circle cx="42" cy="165" r="1.8" fill="#fff"/>
    <circle cx="108" cy="31" r="1.4" fill="#fff"/>
    <circle cx="154" cy="220" r="1.7" fill="#fff"/>
    <circle cx="194" cy="206" r="1.2" fill="#fff"/>
  </g>
  <text x="128" y="232" text-anchor="middle" fill="#dbeafe" font-family="ui-monospace, SFMono-Regular, Menlo, monospace" font-size="13" font-weight="700" letter-spacing="0">Solar Arch</text>
  <text x="128" y="247" text-anchor="middle" fill="#64748b" font-family="ui-monospace, SFMono-Regular, Menlo, monospace" font-size="8" letter-spacing="0">solar-arch</text>
</svg>